<svg xmlns="http://www.w3.org/2000/svg" viewBox="0 0 128 128" role="img" aria-label="Batinga Cursos">
  <defs>
    <linearGradient id="g" x1="0" y1="0" x2="1" y2="1">
      <stop offset="0" stop-color="#B0007C"/>
      <stop offset="1" stop-color="#6B004B"/>
    </linearGradient>
  </defs>
  <rect x="8" y="8" width="112" height="112" rx="28" fill="url(#g)"/>
  <path d="M46 37h29c17 0 29 9 29 23 0 10-6 17-16 20 11 3 18 11 18 22 0 15-12 26-31 26H46V37Zm27 36c10 0 16-4 16-11 0-7-6-11-16-11H60v22h13Zm3 41c11 0 18-5 18-13 0-8-7-13-18-13H60v26h16Z" fill="#fff"/>
</svg>
